<?xml version="1.0" encoding="UTF-8" standalone="no"?>
<!DOCTYPE svg PUBLIC "-//W3C//DTD SVG 1.1//EN"
 "http://www.w3.org/Graphics/SVG/1.1/DTD/svg11.dtd">
<!-- Generated by graphviz version 2.40.1 (20161225.0304)
 -->
<!-- Title: function Pages: 1 -->
<svg width="362pt" height="710pt"
 viewBox="0.00 0.00 362.07 710.00" xmlns="http://www.w3.org/2000/svg" xmlns:xlink="http://www.w3.org/1999/xlink">
<g id="graph0" class="graph" transform="scale(1 1) rotate(0) translate(4 706)">
<title>function</title>
<polygon fill="#ffffff" stroke="transparent" points="-4,4 -4,-706 358.075,-706 358.075,4 -4,4"/>
<!-- mantro_calor() -->
<g id="node1" class="node">
<title>mantro_calor()</title>
<ellipse fill="none" stroke="#000000" cx="168.5882" cy="-549" rx="63.8893" ry="18"/>
<text text-anchor="middle" x="168.5882" y="-545.3" font-family="Times,serif" font-size="14.00" fill="#000000">mantro_calor()</text>
</g>
<!-- srand() -->
<g id="node2" class="node">
<title>srand()</title>
<ellipse fill="none" stroke="#000000" cx="311.1788" cy="-684" rx="35.9954" ry="18"/>
<text text-anchor="middle" x="311.1788" y="-680.3" font-family="Times,serif" font-size="14.00" fill="#000000">srand()</text>
</g>
<!-- mantro_calor()&#45;&gt;srand() -->
<g id="edge1" class="edge">
<title>mantro_calor()&#45;&gt;srand()</title>
<path fill="none" stroke="#000000" d="M182.5268,-566.797C200.7423,-589.3788 234.3366,-628.7787 268.2826,-657 271.556,-659.7213 275.124,-662.3783 278.7583,-664.8981"/>
<polygon fill="#000000" stroke="#000000" points="276.9756,-667.9149 287.2517,-670.4942 280.827,-662.0696 276.9756,-667.9149"/>
</g>
<!-- rand() -->
<g id="node3" class="node">
<title>rand()</title>
<ellipse fill="none" stroke="#000000" cx="311.1788" cy="-630" rx="32.4942" ry="18"/>
<text text-anchor="middle" x="311.1788" y="-626.3" font-family="Times,serif" font-size="14.00" fill="#000000">rand()</text>
</g>
<!-- mantro_calor()&#45;&gt;rand() -->
<g id="edge2" class="edge">
<title>mantro_calor()&#45;&gt;rand()</title>
<path fill="none" stroke="#000000" d="M205.3088,-563.8713C229.9672,-576.7 261.906,-595.0324 284.2271,-609.2692"/>
<polygon fill="#000000" stroke="#000000" points="282.5722,-612.3683 292.8613,-614.8954 286.3939,-606.5036 282.5722,-612.3683"/>
</g>
<!-- mantro_calor()&#45;&gt;rand() -->
<g id="edge3" class="edge">
<title>mantro_calor()&#45;&gt;rand()</title>
<path fill="none" stroke="#000000" d="M189.9355,-566.109C212.3831,-580.8251 248.1066,-601.4451 274.9734,-615.3965"/>
<polygon fill="#000000" stroke="#000000" points="273.5719,-618.6106 284.0709,-620.0326 276.7503,-612.3737 273.5719,-618.6106"/>
</g>
<!-- sqrt() -->
<g id="node4" class="node">
<title>sqrt()</title>
<ellipse fill="none" stroke="#000000" cx="311.1788" cy="-576" rx="29.795" ry="18"/>
<text text-anchor="middle" x="311.1788" y="-572.3" font-family="Times,serif" font-size="14.00" fill="#000000">sqrt()</text>
</g>
<!-- mantro_calor()&#45;&gt;sqrt() -->
<g id="edge4" class="edge">
<title>mantro_calor()&#45;&gt;sqrt()</title>
<path fill="none" stroke="#000000" d="M221.6837,-559.0538C238.5714,-562.2516 256.9193,-565.7258 272.5803,-568.6912"/>
<polygon fill="#000000" stroke="#000000" points="271.9648,-572.1368 282.4414,-570.5585 273.2672,-565.259 271.9648,-572.1368"/>
</g>
<!-- pow() -->
<g id="node5" class="node">
<title>pow()</title>
<ellipse fill="none" stroke="#000000" cx="311.1788" cy="-522" rx="31.6951" ry="18"/>
<text text-anchor="middle" x="311.1788" y="-518.3" font-family="Times,serif" font-size="14.00" fill="#000000">pow()</text>
</g>
<!-- mantro_calor()&#45;&gt;pow() -->
<g id="edge5" class="edge">
<title>mantro_calor()&#45;&gt;pow()</title>
<path fill="none" stroke="#000000" d="M209.449,-535.0922C228.058,-530.8157 250.0726,-526.628 268.8548,-523.7861"/>
<polygon fill="#000000" stroke="#000000" points="269.5079,-527.2285 278.9147,-522.3537 268.5211,-520.2984 269.5079,-527.2285"/>
</g>
<!-- mantro_calor()&#45;&gt;pow() -->
<g id="edge6" class="edge">
<title>mantro_calor()&#45;&gt;pow()</title>
<path fill="none" stroke="#000000" d="M229.887,-544.0835C245.2854,-541.3517 261.3184,-538.0723 275.0359,-534.8041"/>
<polygon fill="#000000" stroke="#000000" points="276.1677,-538.1292 285.0255,-532.3163 274.476,-531.3367 276.1677,-538.1292"/>
</g>
<!-- if() -->
<g id="node6" class="node">
<title>if()</title>
<ellipse fill="none" stroke="#000000" cx="311.1788" cy="-468" rx="27" ry="18"/>
<text text-anchor="middle" x="311.1788" y="-464.3" font-family="Times,serif" font-size="14.00" fill="#000000">if()</text>
</g>
<!-- mantro_calor()&#45;&gt;if() -->
<g id="edge7" class="edge">
<title>mantro_calor()&#45;&gt;if()</title>
<path fill="none" stroke="#000000" d="M197.1009,-532.8031C221.6033,-518.8843 256.8039,-498.8882 281.6081,-484.7979"/>
<polygon fill="#000000" stroke="#000000" points="283.5953,-487.6944 290.5615,-479.7118 280.1377,-481.6079 283.5953,-487.6944"/>
</g>
<!-- func() -->
<g id="node7" class="node">
<title>func()</title>
<ellipse fill="none" stroke="#000000" cx="168.5882" cy="-360" rx="32.4942" ry="18"/>
<text text-anchor="middle" x="168.5882" y="-356.3" font-family="Times,serif" font-size="14.00" fill="#000000">func()</text>
</g>
<!-- func()&#45;&gt;if() -->
<g id="edge9" class="edge">
<title>func()&#45;&gt;if()</title>
<path fill="none" stroke="#000000" d="M186.0882,-375.3008C205.6077,-392.1077 238.3787,-419.559 268.2826,-441 272.6405,-444.1246 277.3543,-447.2915 282.0076,-450.3036"/>
<polygon fill="#000000" stroke="#000000" points="280.4509,-453.4605 290.7721,-455.8531 284.1957,-447.5464 280.4509,-453.4605"/>
</g>
<!-- puts() -->
<g id="node8" class="node">
<title>puts()</title>
<ellipse fill="none" stroke="#000000" cx="311.1788" cy="-414" rx="31.3957" ry="18"/>
<text text-anchor="middle" x="311.1788" y="-410.3" font-family="Times,serif" font-size="14.00" fill="#000000">puts()</text>
</g>
<!-- func()&#45;&gt;puts() -->
<g id="edge8" class="edge">
<title>func()&#45;&gt;puts()</title>
<path fill="none" stroke="#000000" d="M195.7441,-370.2841C218.4283,-378.8748 250.9413,-391.1877 275.6847,-400.5582"/>
<polygon fill="#000000" stroke="#000000" points="274.495,-403.8501 285.0864,-404.1186 276.9741,-397.3038 274.495,-403.8501"/>
</g>
<!-- printf() -->
<g id="node9" class="node">
<title>printf()</title>
<ellipse fill="none" stroke="#000000" cx="311.1788" cy="-360" rx="36.2938" ry="18"/>
<text text-anchor="middle" x="311.1788" y="-356.3" font-family="Times,serif" font-size="14.00" fill="#000000">printf()</text>
</g>
<!-- func()&#45;&gt;printf() -->
<g id="edge10" class="edge">
<title>func()&#45;&gt;printf()</title>
<path fill="none" stroke="#000000" d="M182.0028,-343.4155C206.2947,-331.0126 257.8368,-329.6869 287.9543,-339.4381"/>
<polygon fill="#000000" stroke="#000000" points="286.6919,-342.7027 297.2765,-343.1697 289.2934,-336.2041 286.6919,-342.7027"/>
</g>
<!-- func()&#45;&gt;printf() -->
<g id="edge11" class="edge">
<title>func()&#45;&gt;printf()</title>
<path fill="none" stroke="#000000" d="M194.7415,-349.2719C216.4093,-346.1526 247.527,-345.666 272.1431,-347.8121"/>
<polygon fill="#000000" stroke="#000000" points="271.9327,-351.3094 282.2483,-348.893 272.6773,-344.3491 271.9327,-351.3094"/>
</g>
<!-- func()&#45;&gt;printf() -->
<g id="edge12" class="edge">
<title>func()&#45;&gt;printf()</title>
<path fill="none" stroke="#000000" d="M201.3014,-360C220.0114,-360 243.7943,-360 264.4452,-360"/>
<polygon fill="#000000" stroke="#000000" points="264.6043,-363.5001 274.6043,-360 264.6043,-356.5001 264.6043,-363.5001"/>
</g>
<!-- func()&#45;&gt;printf() -->
<g id="edge13" class="edge">
<title>func()&#45;&gt;printf()</title>
<path fill="none" stroke="#000000" d="M194.7415,-370.7281C216.4093,-373.8474 247.527,-374.334 272.1431,-372.1879"/>
<polygon fill="#000000" stroke="#000000" points="272.6773,-375.6509 282.2483,-371.107 271.9327,-368.6906 272.6773,-375.6509"/>
</g>
<!-- func()&#45;&gt;printf() -->
<g id="edge14" class="edge">
<title>func()&#45;&gt;printf()</title>
<path fill="none" stroke="#000000" d="M182.0028,-376.5845C206.2947,-388.9874 257.8368,-390.3131 287.9543,-380.5619"/>
<polygon fill="#000000" stroke="#000000" points="289.2934,-383.7959 297.2765,-376.8303 286.6919,-377.2973 289.2934,-383.7959"/>
</g>
<!-- f() -->
<g id="node10" class="node">
<title>f()</title>
<ellipse fill="none" stroke="#000000" cx="311.1788" cy="-234" rx="27" ry="18"/>
<text text-anchor="middle" x="311.1788" y="-230.3" font-family="Times,serif" font-size="14.00" fill="#000000">f()</text>
</g>
<!-- bin2ascii() -->
<g id="node11" class="node">
<title>bin2ascii()</title>
<ellipse fill="none" stroke="#000000" cx="168.5882" cy="-288" rx="48.1917" ry="18"/>
<text text-anchor="middle" x="168.5882" y="-284.3" font-family="Times,serif" font-size="14.00" fill="#000000">bin2ascii()</text>
</g>
<!-- bin2ascii()&#45;&gt;bin2ascii() -->
<g id="edge15" class="edge">
<title>bin2ascii()&#45;&gt;bin2ascii()</title>
<path fill="none" stroke="#000000" d="M145.4507,-303.916C139.4148,-314.1504 147.1273,-324 168.5882,-324 182.672,-324 190.8348,-319.7581 193.0766,-313.9494"/>
<polygon fill="#000000" stroke="#000000" points="196.5289,-313.3596 191.7258,-303.916 189.5915,-314.2936 196.5289,-313.3596"/>
</g>
<!-- putchar() -->
<g id="node12" class="node">
<title>putchar()</title>
<ellipse fill="none" stroke="#000000" cx="311.1788" cy="-288" rx="42.7926" ry="18"/>
<text text-anchor="middle" x="311.1788" y="-284.3" font-family="Times,serif" font-size="14.00" fill="#000000">putchar()</text>
</g>
<!-- bin2ascii()&#45;&gt;putchar() -->
<g id="edge16" class="edge">
<title>bin2ascii()&#45;&gt;putchar()</title>
<path fill="none" stroke="#000000" d="M216.8629,-288C230.1258,-288 244.5793,-288 258.0966,-288"/>
<polygon fill="#000000" stroke="#000000" points="258.2157,-291.5001 268.2156,-288 258.2156,-284.5001 258.2157,-291.5001"/>
</g>
<!-- func_pointor() -->
<g id="node13" class="node">
<title>func_pointor()</title>
<ellipse fill="none" stroke="#000000" cx="168.5882" cy="-234" rx="61.99" ry="18"/>
<text text-anchor="middle" x="168.5882" y="-230.3" font-family="Times,serif" font-size="14.00" fill="#000000">func_pointor()</text>
</g>
<!-- func_pointor()&#45;&gt;f() -->
<g id="edge17" class="edge">
<title>func_pointor()&#45;&gt;f()</title>
<path fill="none" stroke="#000000" d="M230.7157,-234C245.4019,-234 260.6158,-234 273.8088,-234"/>
<polygon fill="#000000" stroke="#000000" points="273.9073,-237.5001 283.9073,-234 273.9072,-230.5001 273.9073,-237.5001"/>
</g>
<!-- main() -->
<g id="node14" class="node">
<title>main()</title>
<ellipse fill="none" stroke="#000000" cx="34.4469" cy="-207" rx="34.394" ry="18"/>
<text text-anchor="middle" x="34.4469" y="-203.3" font-family="Times,serif" font-size="14.00" fill="#000000">main()</text>
</g>
<!-- main()&#45;&gt;mantro_calor() -->
<g id="edge22" class="edge">
<title>main()&#45;&gt;mantro_calor()</title>
<path fill="none" stroke="#000000" d="M41.4369,-224.8875C54.0829,-257.2425 81.6098,-327.6432 104.8939,-387 123.4164,-434.2183 145.0292,-489.1545 157.7188,-521.3932"/>
<polygon fill="#000000" stroke="#000000" points="154.5903,-523.0012 161.51,-531.0242 161.1038,-520.4372 154.5903,-523.0012"/>
</g>
<!-- main()&#45;&gt;func() -->
<g id="edge18" class="edge">
<title>main()&#45;&gt;func()</title>
<path fill="none" stroke="#000000" d="M40.1901,-224.8649C49.6546,-251.7114 70.9339,-302.5496 104.8939,-333 111.9862,-339.3594 120.7976,-344.3699 129.5821,-348.2569"/>
<polygon fill="#000000" stroke="#000000" points="128.437,-351.5686 139.0212,-352.0445 131.0439,-345.0721 128.437,-351.5686"/>
</g>
<!-- main()&#45;&gt;bin2ascii() -->
<g id="edge19" class="edge">
<title>main()&#45;&gt;bin2ascii()</title>
<path fill="none" stroke="#000000" d="M52.09,-222.5501C65.8263,-234.1407 85.7193,-249.8304 104.8939,-261 111.1726,-264.6575 118.0411,-268.0943 124.8699,-271.2103"/>
<polygon fill="#000000" stroke="#000000" points="123.5339,-274.4461 134.0981,-275.2513 126.3418,-268.0339 123.5339,-274.4461"/>
</g>
<!-- main()&#45;&gt;func_pointor() -->
<g id="edge21" class="edge">
<title>main()&#45;&gt;func_pointor()</title>
<path fill="none" stroke="#000000" d="M66.9188,-213.5359C79.148,-215.9974 93.4905,-218.8843 107.4838,-221.7009"/>
<polygon fill="#000000" stroke="#000000" points="107.0822,-225.1902 117.5763,-223.7323 108.4635,-218.3278 107.0822,-225.1902"/>
</g>
<!-- bin2ascii_2() -->
<g id="node15" class="node">
<title>bin2ascii_2()</title>
<ellipse fill="none" stroke="#000000" cx="168.5882" cy="-180" rx="57.3905" ry="18"/>
<text text-anchor="middle" x="168.5882" y="-176.3" font-family="Times,serif" font-size="14.00" fill="#000000">bin2ascii_2()</text>
</g>
<!-- main()&#45;&gt;bin2ascii_2() -->
<g id="edge20" class="edge">
<title>main()&#45;&gt;bin2ascii_2()</title>
<path fill="none" stroke="#000000" d="M66.9188,-200.4641C79.8967,-197.8519 95.2546,-194.7606 110.0496,-191.7827"/>
<polygon fill="#000000" stroke="#000000" points="111.0533,-195.1509 120.1661,-189.7464 109.672,-188.2885 111.0533,-195.1509"/>
</g>
<!-- open() -->
<g id="node16" class="node">
<title>open()</title>
<ellipse fill="none" stroke="#000000" cx="168.5882" cy="-126" rx="33.5952" ry="18"/>
<text text-anchor="middle" x="168.5882" y="-122.3" font-family="Times,serif" font-size="14.00" fill="#000000">open()</text>
</g>
<!-- main()&#45;&gt;open() -->
<g id="edge23" class="edge">
<title>main()&#45;&gt;open()</title>
<path fill="none" stroke="#000000" d="M52.09,-191.4499C65.8263,-179.8593 85.7193,-164.1696 104.8939,-153 113.125,-148.2052 122.3696,-143.7898 131.2096,-139.9789"/>
<polygon fill="#000000" stroke="#000000" points="132.6816,-143.1576 140.5761,-136.0917 129.9983,-136.6922 132.6816,-143.1576"/>
</g>
<!-- perror() -->
<g id="node17" class="node">
<title>perror()</title>
<ellipse fill="none" stroke="#000000" cx="168.5882" cy="-72" rx="38.1938" ry="18"/>
<text text-anchor="middle" x="168.5882" y="-68.3" font-family="Times,serif" font-size="14.00" fill="#000000">perror()</text>
</g>
<!-- main()&#45;&gt;perror() -->
<g id="edge24" class="edge">
<title>main()&#45;&gt;perror()</title>
<path fill="none" stroke="#000000" d="M41.9343,-189.3597C52.7131,-165.8518 74.6801,-124.2878 104.8939,-99 111.2454,-93.684 118.7969,-89.2728 126.4411,-85.6647"/>
<polygon fill="#000000" stroke="#000000" points="127.9409,-88.8296 135.7368,-81.655 125.1684,-82.402 127.9409,-88.8296"/>
</g>
<!-- exit() -->
<g id="node18" class="node">
<title>exit()</title>
<ellipse fill="none" stroke="#000000" cx="168.5882" cy="-18" rx="29.795" ry="18"/>
<text text-anchor="middle" x="168.5882" y="-14.3" font-family="Times,serif" font-size="14.00" fill="#000000">exit()</text>
</g>
<!-- main()&#45;&gt;exit() -->
<g id="edge25" class="edge">
<title>main()&#45;&gt;exit()</title>
<path fill="none" stroke="#000000" d="M37.7175,-188.9458C44.548,-156.1148 63.2817,-86.2289 104.8939,-45 112.2527,-37.709 121.8829,-32.2661 131.4187,-28.2535"/>
<polygon fill="#000000" stroke="#000000" points="132.7137,-31.5059 140.8355,-24.7024 130.2437,-24.9561 132.7137,-31.5059"/>
</g>
</g>
</svg>
