<?xml version="1.0" encoding="UTF-8" standalone="no"?>
<!DOCTYPE svg PUBLIC "-//W3C//DTD SVG 1.1//EN"
 "http://www.w3.org/Graphics/SVG/1.1/DTD/svg11.dtd">
<!-- Generated by graphviz version 2.40.1 (20161225.0304)
 -->
<!-- Title: 流程图 Pages: 1 -->
<svg width="144pt" height="499pt"
 viewBox="0.00 0.00 144.04 499.00" xmlns="http://www.w3.org/2000/svg" xmlns:xlink="http://www.w3.org/1999/xlink">
<g id="graph0" class="graph" transform="scale(1 1) rotate(0) translate(4 495)">
<title>流程图</title>
<polygon fill="#f5deb3" stroke="transparent" points="-4,4 -4,-495 140.0353,-495 140.0353,4 -4,4"/>
<text text-anchor="middle" x="68.0176" y="-7.8" font-family="Times,serif" font-size="14.00" fill="#000000">流程图名称</text>
<!-- 开始 -->
<g id="node1" class="node">
<title>开始</title>
<ellipse fill="none" stroke="#000000" cx="68.0176" cy="-473" rx="29.4969" ry="18"/>
<text text-anchor="middle" x="68.0176" y="-469.3" font-family="Times,serif" font-size="14.00" fill="#000000">开始</text>
</g>
<!-- 输入 -->
<g id="node3" class="node">
<title>输入</title>
<polygon fill="none" stroke="#000000" points="110.7825,-419 42.7532,-419 25.2528,-383 93.2821,-383 110.7825,-419"/>
<text text-anchor="middle" x="68.0176" y="-397.3" font-family="Times,serif" font-size="14.00" fill="#000000">输入</text>
</g>
<!-- 开始&#45;&gt;输入 -->
<g id="edge1" class="edge">
<title>开始&#45;&gt;输入</title>
<path fill="none" stroke="#000000" d="M68.0176,-454.8314C68.0176,-447.131 68.0176,-437.9743 68.0176,-429.4166"/>
<polygon fill="#000000" stroke="#000000" points="71.5177,-429.4132 68.0176,-419.4133 64.5177,-429.4133 71.5177,-429.4132"/>
</g>
<!-- 结束 -->
<g id="node2" class="node">
<title>结束</title>
<ellipse fill="none" stroke="#000000" cx="68.0176" cy="-41" rx="29.4969" ry="18"/>
<text text-anchor="middle" x="68.0176" y="-37.3" font-family="Times,serif" font-size="14.00" fill="#000000">结束</text>
</g>
<!-- 处理1 -->
<g id="node6" class="node">
<title>处理1</title>
<polygon fill="none" stroke="#000000" points="95.0176,-347 41.0176,-347 41.0176,-311 95.0176,-311 95.0176,-347"/>
<text text-anchor="middle" x="68.0176" y="-325.3" font-family="Times,serif" font-size="14.00" fill="#000000">处理1</text>
</g>
<!-- 输入&#45;&gt;处理1 -->
<g id="edge2" class="edge">
<title>输入&#45;&gt;处理1</title>
<path fill="none" stroke="#000000" d="M68.0176,-382.8314C68.0176,-375.131 68.0176,-365.9743 68.0176,-357.4166"/>
<polygon fill="#000000" stroke="#000000" points="71.5177,-357.4132 68.0176,-347.4133 64.5177,-357.4133 71.5177,-357.4132"/>
</g>
<!-- 输出 -->
<g id="node4" class="node">
<title>输出</title>
<polygon fill="none" stroke="#000000" points="110.7825,-131 42.7532,-131 25.2528,-95 93.2821,-95 110.7825,-131"/>
<text text-anchor="middle" x="68.0176" y="-109.3" font-family="Times,serif" font-size="14.00" fill="#000000">输出</text>
</g>
<!-- 输出&#45;&gt;结束 -->
<g id="edge6" class="edge">
<title>输出&#45;&gt;结束</title>
<path fill="none" stroke="#000000" d="M68.0176,-94.8314C68.0176,-87.131 68.0176,-77.9743 68.0176,-69.4166"/>
<polygon fill="#000000" stroke="#000000" points="71.5177,-69.4132 68.0176,-59.4133 64.5177,-69.4133 71.5177,-69.4132"/>
</g>
<!-- 条件判断 -->
<g id="node5" class="node">
<title>条件判断</title>
<polygon fill="none" stroke="#000000" points="68.0176,-203 -.0176,-185 68.0176,-167 136.0529,-185 68.0176,-203"/>
<text text-anchor="middle" x="68.0176" y="-181.3" font-family="Times,serif" font-size="14.00" fill="#000000">条件判断</text>
</g>
<!-- 条件判断&#45;&gt;输出 -->
<g id="edge5" class="edge">
<title>条件判断&#45;&gt;输出</title>
<path fill="none" stroke="#000000" d="M68.0176,-166.8314C68.0176,-159.131 68.0176,-149.9743 68.0176,-141.4166"/>
<polygon fill="#000000" stroke="#000000" points="71.5177,-141.4132 68.0176,-131.4133 64.5177,-141.4133 71.5177,-141.4132"/>
</g>
<!-- 条件判断&#45;&gt;处理1 -->
<g id="edge7" class="edge">
<title>条件判断&#45;&gt;处理1</title>
<path fill="none" stroke="#000000" d="M64.7692,-202.4376C62.9717,-212.9796 60.9229,-226.7128 60.0176,-239 58.8421,-254.9568 58.8421,-259.0432 60.0176,-275 60.6345,-283.3736 61.7826,-292.4188 63.0202,-300.6678"/>
<polygon fill="#000000" stroke="#000000" points="59.5699,-301.2572 64.6026,-310.5804 66.4824,-300.1537 59.5699,-301.2572"/>
</g>
<!-- chuli2 -->
<g id="node7" class="node">
<title>chuli2</title>
<polygon fill="none" stroke="#000000" points="123.0176,-275 69.0176,-275 69.0176,-239 123.0176,-239 123.0176,-275"/>
<text text-anchor="middle" x="96.0176" y="-253.3" font-family="Times,serif" font-size="14.00" fill="#000000">chuli2</text>
</g>
<!-- 处理1&#45;&gt;chuli2 -->
<g id="edge3" class="edge">
<title>处理1&#45;&gt;chuli2</title>
<path fill="none" stroke="#000000" d="M75.0832,-310.8314C78.1436,-302.9617 81.7955,-293.5712 85.1858,-284.8533"/>
<polygon fill="#000000" stroke="#000000" points="88.4944,-286.0019 88.8569,-275.4133 81.9704,-283.4647 88.4944,-286.0019"/>
</g>
<!-- chuli2&#45;&gt;条件判断 -->
<g id="edge4" class="edge">
<title>chuli2&#45;&gt;条件判断</title>
<path fill="none" stroke="#000000" d="M88.9521,-238.8314C85.6684,-230.3876 81.7038,-220.1929 78.112,-210.9569"/>
<polygon fill="#000000" stroke="#000000" points="81.2972,-209.4907 74.4107,-201.4393 74.7732,-212.0279 81.2972,-209.4907"/>
</g>
</g>
</svg>
